<svg width="115" height="27" viewBox="0 0 115 27" fill="none" xmlns="http://www.w3.org/2000/svg">
<path fill-rule="evenodd" clip-rule="evenodd" d="M1.99996 1.99989H114V25.9999H1.99996V1.99989Z" fill="black"/>
<path d="M20.4243 18H19.3877V11.0283H15.5312V18H14.5V10.1797H20.4243V18ZM23.3354 14.9385V18H22.3042V10.1797H25.1885C26.0443 10.1797 26.7139 10.3981 27.1973 10.835C27.6842 11.2718 27.9277 11.8501 27.9277 12.5698C27.9277 13.3289 27.6896 13.9144 27.2134 14.3262C26.7407 14.7344 26.0622 14.9385 25.1777 14.9385H23.3354ZM23.3354 14.0952H25.1885C25.7399 14.0952 26.1624 13.9663 26.4561 13.7085C26.7497 13.4471 26.8965 13.0711 26.8965 12.5806C26.8965 12.1151 26.7497 11.7427 26.4561 11.4634C26.1624 11.1841 25.7596 11.0391 25.2476 11.0283H23.3354V14.0952ZM33.6641 14.3853H30.2749V17.1567H34.2119V18H29.2437V10.1797H34.1582V11.0283H30.2749V13.542H33.6641V14.3853ZM40.4263 10.1797H41.4575V18H40.4263V11.9736L36.5752 18H35.5386V10.1797H36.5752V16.2061L40.4263 10.1797ZM44.6694 10.1797L47.2261 16.5605L49.7827 10.1797H51.1201V18H50.0889V14.9546L50.1855 11.6675L47.6182 18H46.8286L44.2666 11.6836L44.3687 14.9546V18H43.3374V10.1797H44.6694ZM55.6265 14.7183L57.4258 10.1797H58.6235L55.8574 16.6948C55.6712 17.1102 55.4976 17.4056 55.3364 17.5811C55.1753 17.7529 54.9855 17.8854 54.7671 17.9785C54.5522 18.068 54.2819 18.1128 53.9561 18.1128C53.6732 18.1128 53.4924 18.0967 53.4136 18.0645L53.4458 17.248L53.9346 17.2695C54.3105 17.2695 54.5898 17.0887 54.7725 16.7271L54.9067 16.4478L55.1108 15.9697L52.4468 10.1797H53.6016L55.6265 14.7183ZM60.9331 10.1797V17.1567H63.624V10.1797H64.6499V17.1567H67.3247V10.1797H68.356V17.189H69.1455L69.0488 19.8853H68.1626V18H59.8965V10.1797H60.9331ZM74.9355 14.3853H71.5464V17.1567H75.4834V18H70.5151V10.1797H75.4297V11.0283H71.5464V13.542H74.9355V14.3853ZM82.5195 15.5186C82.4229 16.3457 82.1167 16.9849 81.6011 17.436C81.089 17.8836 80.4069 18.1074 79.5547 18.1074C78.6309 18.1074 77.8896 17.7762 77.3311 17.1138C76.776 16.4513 76.4985 15.5651 76.4985 14.4551V13.7031C76.4985 12.9762 76.6274 12.3371 76.8853 11.7856C77.1466 11.2342 77.5155 10.8117 77.9917 10.5181C78.4679 10.2209 79.0194 10.0723 79.646 10.0723C80.4767 10.0723 81.1427 10.305 81.644 10.7705C82.1453 11.2324 82.4372 11.8734 82.5195 12.6934H81.4829C81.3934 12.0703 81.1982 11.6191 80.8975 11.3398C80.6003 11.0605 80.1831 10.9209 79.646 10.9209C78.9871 10.9209 78.4697 11.1644 78.0938 11.6514C77.7214 12.1383 77.5352 12.8312 77.5352 13.73V14.4873C77.5352 15.3359 77.7124 16.0109 78.0669 16.5122C78.4214 17.0135 78.9173 17.2642 79.5547 17.2642C80.1276 17.2642 80.5662 17.1353 80.8706 16.8774C81.1785 16.616 81.3826 16.1631 81.4829 15.5186H82.5195ZM89.1743 11.0283H86.6606V18H85.6348V11.0283H83.1265V10.1797H89.1743V11.0283ZM90.3345 18V10.1797H92.8911C93.7397 10.1797 94.3771 10.3551 94.8032 10.7061C95.2329 11.057 95.4478 11.5762 95.4478 12.2637C95.4478 12.6289 95.3439 12.953 95.1362 13.2358C94.9285 13.5151 94.6457 13.7318 94.2876 13.8857C94.7101 14.0039 95.0431 14.2295 95.2866 14.5625C95.5337 14.8919 95.6572 15.2858 95.6572 15.7441C95.6572 16.446 95.4299 16.9974 94.9751 17.3984C94.5203 17.7995 93.8776 18 93.0469 18H90.3345ZM91.3657 14.3423V17.1567H93.0684C93.5482 17.1567 93.9259 17.0332 94.2017 16.7861C94.481 16.5355 94.6206 16.1917 94.6206 15.7549C94.6206 14.8132 94.1086 14.3423 93.0845 14.3423H91.3657ZM91.3657 13.5151H92.9233C93.3745 13.5151 93.7344 13.4023 94.0029 13.1768C94.2751 12.9512 94.4111 12.645 94.4111 12.2583C94.4111 11.8286 94.2858 11.5171 94.0352 11.3237C93.7845 11.1268 93.4032 11.0283 92.8911 11.0283H91.3657V13.5151ZM101.506 15.959H98.23L97.4941 18H96.4307L99.417 10.1797H100.319L103.311 18H102.253L101.506 15.959ZM98.5415 15.1104H101.2L99.8682 11.4526L98.5415 15.1104Z" fill="white"/>
</svg>
