<svg width="115" height="27" viewBox="0 0 115 27" fill="none" xmlns="http://www.w3.org/2000/svg">
<path fill-rule="evenodd" clip-rule="evenodd" d="M1.99996 2H114V25.9997H1.99996V2Z" fill="white"/>
<path d="M16.5083 18V10.1797H19.0649C19.9136 10.1797 20.5509 10.3551 20.9771 10.7061C21.4067 11.057 21.6216 11.5762 21.6216 12.2637C21.6216 12.6289 21.5177 12.953 21.3101 13.2358C21.1024 13.5151 20.8195 13.7318 20.4614 13.8857C20.884 14.0039 21.217 14.2295 21.4604 14.5625C21.7075 14.8919 21.8311 15.2858 21.8311 15.7441C21.8311 16.446 21.6037 16.9974 21.1489 17.3984C20.6942 17.7995 20.0514 18 19.2207 18H16.5083ZM17.5396 14.3423V17.1567H19.2422C19.722 17.1567 20.0998 17.0332 20.3755 16.7861C20.6548 16.5355 20.7944 16.1917 20.7944 15.7549C20.7944 14.8132 20.2824 14.3423 19.2583 14.3423H17.5396ZM17.5396 13.5151H19.0972C19.5483 13.5151 19.9082 13.4023 20.1768 13.1768C20.4489 12.9512 20.585 12.645 20.585 12.2583C20.585 11.8286 20.4596 11.5171 20.209 11.3237C19.9583 11.1268 19.577 11.0283 19.0649 11.0283H17.5396V13.5151ZM29.3774 14.3423C29.3774 15.1086 29.2485 15.7782 28.9907 16.3511C28.7329 16.9204 28.3677 17.3555 27.895 17.6562C27.4224 17.957 26.8709 18.1074 26.2407 18.1074C25.6248 18.1074 25.0788 17.957 24.6025 17.6562C24.1263 17.3519 23.7557 16.9204 23.4907 16.3618C23.2293 15.7996 23.0951 15.1497 23.0879 14.4121V13.8481C23.0879 13.0962 23.2186 12.432 23.48 11.8555C23.7414 11.279 24.1102 10.8385 24.5864 10.5342C25.0662 10.2262 25.6141 10.0723 26.23 10.0723C26.8566 10.0723 27.408 10.2244 27.8843 10.5288C28.3641 10.8296 28.7329 11.2682 28.9907 11.8447C29.2485 12.4176 29.3774 13.0854 29.3774 13.8481V14.3423ZM28.3516 13.8374C28.3516 12.91 28.1654 12.1992 27.793 11.7051C27.4206 11.2074 26.8996 10.9585 26.23 10.9585C25.5783 10.9585 25.0645 11.2074 24.6885 11.7051C24.3161 12.1992 24.1245 12.8867 24.1138 13.7676V14.3423C24.1138 15.241 24.3018 15.9482 24.6777 16.4639C25.0573 16.9759 25.5783 17.2319 26.2407 17.2319C26.9067 17.2319 27.4224 16.9902 27.7876 16.5068C28.1528 16.0199 28.3408 15.3234 28.3516 14.4175V13.8374ZM34.9365 12.2798C34.9365 11.8644 34.7843 11.535 34.48 11.2915C34.1792 11.0444 33.7549 10.9209 33.207 10.9209C32.7487 10.9209 32.3638 11.048 32.0522 11.3022C31.7443 11.5529 31.5903 11.8644 31.5903 12.2368H30.5591C30.5591 11.8215 30.6719 11.4491 30.8975 11.1196C31.1266 10.7902 31.4453 10.5342 31.8535 10.3516C32.2617 10.1654 32.7129 10.0723 33.207 10.0723C34.0807 10.0723 34.7593 10.2692 35.2427 10.6631C35.7261 11.0534 35.9678 11.5977 35.9678 12.2959C35.9678 12.6576 35.8568 12.987 35.6348 13.2842C35.4128 13.5814 35.103 13.8159 34.7056 13.9878C35.6258 14.2957 36.0859 14.9062 36.0859 15.8193C36.0859 16.5212 35.8245 17.078 35.3018 17.4897C34.779 17.9015 34.0807 18.1074 33.207 18.1074C32.6878 18.1074 32.2152 18.0161 31.7891 17.8335C31.3665 17.6473 31.0371 17.3841 30.8008 17.0439C30.5645 16.7038 30.4463 16.2992 30.4463 15.8301H31.4775C31.4775 16.2419 31.6405 16.5856 31.9663 16.8613C32.2922 17.1335 32.7057 17.2695 33.207 17.2695C33.7692 17.2695 34.2168 17.1388 34.5498 16.8774C34.8864 16.616 35.0547 16.2705 35.0547 15.8408C35.0547 14.9242 34.4871 14.4569 33.3521 14.439H32.3853V13.5903H33.3467C33.8695 13.5796 34.2651 13.4614 34.5337 13.2358C34.8022 13.0103 34.9365 12.6916 34.9365 12.2798ZM38.7876 10.1797L41.3442 16.5605L43.9009 10.1797H45.2383V18H44.207V14.9546L44.3037 11.6675L41.7363 18H40.9468L38.3848 11.6836L38.4868 14.9546V18H37.4556V10.1797H38.7876ZM53.0747 14.3423C53.0747 15.1086 52.9458 15.7782 52.688 16.3511C52.4302 16.9204 52.0649 17.3555 51.5923 17.6562C51.1196 17.957 50.5682 18.1074 49.938 18.1074C49.3221 18.1074 48.776 17.957 48.2998 17.6562C47.8236 17.3519 47.453 16.9204 47.188 16.3618C46.9266 15.7996 46.7923 15.1497 46.7852 14.4121V13.8481C46.7852 13.0962 46.9159 12.432 47.1772 11.8555C47.4386 11.279 47.8075 10.8385 48.2837 10.5342C48.7635 10.2262 49.3114 10.0723 49.9272 10.0723C50.5539 10.0723 51.1053 10.2244 51.5815 10.5288C52.0614 10.8296 52.4302 11.2682 52.688 11.8447C52.9458 12.4176 53.0747 13.0854 53.0747 13.8481V14.3423ZM52.0488 13.8374C52.0488 12.91 51.8626 12.1992 51.4902 11.7051C51.1178 11.2074 50.5968 10.9585 49.9272 10.9585C49.2756 10.9585 48.7617 11.2074 48.3857 11.7051C48.0133 12.1992 47.8218 12.8867 47.811 13.7676V14.3423C47.811 15.241 47.999 15.9482 48.375 16.4639C48.7546 16.9759 49.2756 17.2319 49.938 17.2319C50.604 17.2319 51.1196 16.9902 51.4849 16.5068C51.8501 16.0199 52.0381 15.3234 52.0488 14.4175V13.8374ZM59.998 14.4336H59.1602V18H58.1289V14.4336H57.2427L55.0298 18H53.7407L56.3726 13.875L53.9448 10.1797H55.1641L57.2427 13.5742H58.1289V10.1797H59.1602V13.5742H60.0088L62.0874 10.1797H63.3013L60.8735 13.8696L63.5054 18H62.2217L59.998 14.4336ZM70.5039 18H69.4673V14.3853H65.5249V18H64.4937V10.1797H65.5249V13.542H69.4673V10.1797H70.5039V18ZM78.3511 14.3423C78.3511 15.1086 78.2222 15.7782 77.9644 16.3511C77.7065 16.9204 77.3413 17.3555 76.8687 17.6562C76.396 17.957 75.8446 18.1074 75.2144 18.1074C74.5985 18.1074 74.0524 17.957 73.5762 17.6562C73.0999 17.3519 72.7293 16.9204 72.4644 16.3618C72.203 15.7996 72.0687 15.1497 72.0615 14.4121V13.8481C72.0615 13.0962 72.1922 12.432 72.4536 11.8555C72.715 11.279 73.0838 10.8385 73.5601 10.5342C74.0399 10.2262 74.5877 10.0723 75.2036 10.0723C75.8302 10.0723 76.3817 10.2244 76.8579 10.5288C77.3377 10.8296 77.7065 11.2682 77.9644 11.8447C78.2222 12.4176 78.3511 13.0854 78.3511 13.8481V14.3423ZM77.3252 13.8374C77.3252 12.91 77.139 12.1992 76.7666 11.7051C76.3942 11.2074 75.8732 10.9585 75.2036 10.9585C74.5519 10.9585 74.0381 11.2074 73.6621 11.7051C73.2897 12.1992 73.0981 12.8867 73.0874 13.7676V14.3423C73.0874 15.241 73.2754 15.9482 73.6514 16.4639C74.0309 16.9759 74.5519 17.2319 75.2144 17.2319C75.8804 17.2319 76.396 16.9902 76.7612 16.5068C77.1265 16.0199 77.3145 15.3234 77.3252 14.4175V13.8374ZM85.6504 15.5186C85.5537 16.3457 85.2476 16.9849 84.7319 17.436C84.2199 17.8836 83.5378 18.1074 82.6855 18.1074C81.7617 18.1074 81.0205 17.7762 80.4619 17.1138C79.9069 16.4513 79.6294 15.5651 79.6294 14.4551V13.7031C79.6294 12.9762 79.7583 12.3371 80.0161 11.7856C80.2775 11.2342 80.6463 10.8117 81.1226 10.5181C81.5988 10.2209 82.1502 10.0723 82.7769 10.0723C83.6076 10.0723 84.2736 10.305 84.7749 10.7705C85.2762 11.2324 85.568 11.8734 85.6504 12.6934H84.6138C84.5243 12.0703 84.3291 11.6191 84.0283 11.3398C83.7311 11.0605 83.314 10.9209 82.7769 10.9209C82.118 10.9209 81.6006 11.1644 81.2246 11.6514C80.8522 12.1383 80.666 12.8312 80.666 13.73V14.4873C80.666 15.3359 80.8433 16.0109 81.1978 16.5122C81.5522 17.0135 82.0482 17.2642 82.6855 17.2642C83.2585 17.2642 83.6971 17.1353 84.0015 16.8774C84.3094 16.616 84.5135 16.1631 84.6138 15.5186H85.6504ZM92.3052 11.0283H89.7915V18H88.7656V11.0283H86.2573V10.1797H92.3052V11.0283ZM98.396 10.1797H99.4272V18H98.396V11.9736L94.5449 18H93.5083V10.1797H94.5449V16.2061L98.396 10.1797Z" fill="#070716"/>
</svg>
